<mxfile host="Electron" modified="2023-06-08T10:19:30.835Z" agent="Mozilla/5.0 (Windows NT 10.0; Win64; x64) AppleWebKit/537.36 (KHTML, like Gecko) draw.io/21.2.8 Chrome/112.0.5615.165 Electron/24.2.0 Safari/537.36" etag="k3OQ2DNCIGBBVfgXGDse" version="21.2.8" type="device">
  <diagram name="Page-1" id="yi8XpHsxwfXrC6YvU_RY">
    <mxGraphModel dx="1416" dy="818" grid="1" gridSize="10" guides="1" tooltips="1" connect="1" arrows="1" fold="1" page="1" pageScale="1" pageWidth="1654" pageHeight="1169" math="0" shadow="0">
      <root>
        <mxCell id="0" />
        <mxCell id="1" parent="0" />
        <mxCell id="igZRPWCzs3Hm7b5LNBdH-15" style="edgeStyle=orthogonalEdgeStyle;rounded=0;orthogonalLoop=1;jettySize=auto;html=1;entryX=0.5;entryY=0;entryDx=0;entryDy=0;strokeColor=#A50040;fontColor=#393C56;fillColor=#d80073;" parent="1" source="igZRPWCzs3Hm7b5LNBdH-1" target="igZRPWCzs3Hm7b5LNBdH-2" edge="1">
          <mxGeometry relative="1" as="geometry">
            <Array as="points">
              <mxPoint x="827" y="660" />
            </Array>
          </mxGeometry>
        </mxCell>
        <mxCell id="igZRPWCzs3Hm7b5LNBdH-80" style="edgeStyle=none;rounded=0;orthogonalLoop=1;jettySize=auto;html=1;strokeColor=#A50040;fontColor=#393C56;fillColor=#d80073;" parent="1" source="igZRPWCzs3Hm7b5LNBdH-1" target="t0_Zm47BuXpar7EaTbNf-2" edge="1">
          <mxGeometry relative="1" as="geometry">
            <mxPoint x="827" y="400" as="targetPoint" />
          </mxGeometry>
        </mxCell>
        <mxCell id="igZRPWCzs3Hm7b5LNBdH-1" value="Activity 5" style="rounded=1;whiteSpace=wrap;html=1;strokeColor=#001DBC;fontColor=#ffffff;fillColor=#0050ef;gradientColor=none;" parent="1" vertex="1">
          <mxGeometry x="767" y="554" width="120" height="60" as="geometry" />
        </mxCell>
        <mxCell id="t0_Zm47BuXpar7EaTbNf-37" style="edgeStyle=orthogonalEdgeStyle;rounded=0;orthogonalLoop=1;jettySize=auto;html=1;entryX=0.5;entryY=0;entryDx=0;entryDy=0;" parent="1" source="igZRPWCzs3Hm7b5LNBdH-2" target="t0_Zm47BuXpar7EaTbNf-36" edge="1">
          <mxGeometry relative="1" as="geometry" />
        </mxCell>
        <mxCell id="igZRPWCzs3Hm7b5LNBdH-2" value="Activity Imposed Restrictions" style="rounded=1;whiteSpace=wrap;html=1;strokeColor=#b85450;fillColor=#f8cecc;" parent="1" vertex="1">
          <mxGeometry x="767" y="660" width="120" height="60" as="geometry" />
        </mxCell>
        <mxCell id="t0_Zm47BuXpar7EaTbNf-5" style="edgeStyle=orthogonalEdgeStyle;rounded=0;orthogonalLoop=1;jettySize=auto;html=1;" parent="1" source="t0_Zm47BuXpar7EaTbNf-2" target="t0_Zm47BuXpar7EaTbNf-4" edge="1">
          <mxGeometry relative="1" as="geometry" />
        </mxCell>
        <mxCell id="t0_Zm47BuXpar7EaTbNf-6" style="edgeStyle=orthogonalEdgeStyle;rounded=0;orthogonalLoop=1;jettySize=auto;html=1;" parent="1" source="t0_Zm47BuXpar7EaTbNf-2" target="t0_Zm47BuXpar7EaTbNf-3" edge="1">
          <mxGeometry relative="1" as="geometry" />
        </mxCell>
        <mxCell id="t0_Zm47BuXpar7EaTbNf-2" value="Roboant Imposed Restrictions" style="rounded=1;whiteSpace=wrap;html=1;fillColor=#f8cecc;strokeColor=#b85450;" parent="1" vertex="1">
          <mxGeometry x="767" y="440" width="120" height="60" as="geometry" />
        </mxCell>
        <mxCell id="t0_Zm47BuXpar7EaTbNf-11" style="edgeStyle=orthogonalEdgeStyle;rounded=0;orthogonalLoop=1;jettySize=auto;html=1;" parent="1" source="t0_Zm47BuXpar7EaTbNf-3" target="t0_Zm47BuXpar7EaTbNf-10" edge="1">
          <mxGeometry relative="1" as="geometry" />
        </mxCell>
        <mxCell id="t0_Zm47BuXpar7EaTbNf-12" style="edgeStyle=orthogonalEdgeStyle;rounded=0;orthogonalLoop=1;jettySize=auto;html=1;" parent="1" source="t0_Zm47BuXpar7EaTbNf-3" target="t0_Zm47BuXpar7EaTbNf-7" edge="1">
          <mxGeometry relative="1" as="geometry" />
        </mxCell>
        <mxCell id="t0_Zm47BuXpar7EaTbNf-13" style="edgeStyle=orthogonalEdgeStyle;rounded=0;orthogonalLoop=1;jettySize=auto;html=1;" parent="1" source="t0_Zm47BuXpar7EaTbNf-3" target="t0_Zm47BuXpar7EaTbNf-9" edge="1">
          <mxGeometry relative="1" as="geometry">
            <Array as="points">
              <mxPoint x="950" y="340" />
              <mxPoint x="1130" y="340" />
            </Array>
          </mxGeometry>
        </mxCell>
        <mxCell id="t0_Zm47BuXpar7EaTbNf-3" value="Inputs" style="rounded=1;whiteSpace=wrap;html=1;fillColor=#f5f5f5;fontColor=#333333;strokeColor=#666666;" parent="1" vertex="1">
          <mxGeometry x="890" y="360" width="120" height="60" as="geometry" />
        </mxCell>
        <mxCell id="t0_Zm47BuXpar7EaTbNf-20" style="edgeStyle=orthogonalEdgeStyle;rounded=0;orthogonalLoop=1;jettySize=auto;html=1;" parent="1" source="t0_Zm47BuXpar7EaTbNf-4" target="t0_Zm47BuXpar7EaTbNf-15" edge="1">
          <mxGeometry relative="1" as="geometry" />
        </mxCell>
        <mxCell id="t0_Zm47BuXpar7EaTbNf-22" style="edgeStyle=orthogonalEdgeStyle;rounded=0;orthogonalLoop=1;jettySize=auto;html=1;" parent="1" source="t0_Zm47BuXpar7EaTbNf-4" target="t0_Zm47BuXpar7EaTbNf-17" edge="1">
          <mxGeometry relative="1" as="geometry" />
        </mxCell>
        <mxCell id="t0_Zm47BuXpar7EaTbNf-23" style="edgeStyle=orthogonalEdgeStyle;rounded=0;orthogonalLoop=1;jettySize=auto;html=1;" parent="1" source="t0_Zm47BuXpar7EaTbNf-4" target="t0_Zm47BuXpar7EaTbNf-18" edge="1">
          <mxGeometry relative="1" as="geometry" />
        </mxCell>
        <mxCell id="t0_Zm47BuXpar7EaTbNf-25" style="edgeStyle=orthogonalEdgeStyle;rounded=0;orthogonalLoop=1;jettySize=auto;html=1;" parent="1" source="t0_Zm47BuXpar7EaTbNf-4" target="t0_Zm47BuXpar7EaTbNf-16" edge="1">
          <mxGeometry relative="1" as="geometry" />
        </mxCell>
        <mxCell id="t0_Zm47BuXpar7EaTbNf-4" value="Outputs" style="rounded=1;whiteSpace=wrap;html=1;fillColor=#f5f5f5;fontColor=#333333;strokeColor=#666666;" parent="1" vertex="1">
          <mxGeometry x="640" y="360" width="120" height="60" as="geometry" />
        </mxCell>
        <mxCell id="t0_Zm47BuXpar7EaTbNf-7" value="whether a wall is currently in a specified direction" style="rounded=1;whiteSpace=wrap;html=1;fillColor=#e1d5e7;strokeColor=#9673a6;" parent="1" vertex="1">
          <mxGeometry x="890" y="250" width="120" height="60" as="geometry" />
        </mxCell>
        <mxCell id="t0_Zm47BuXpar7EaTbNf-9" value="whether the ant is holding any tokens" style="rounded=1;whiteSpace=wrap;html=1;fillColor=#e1d5e7;strokeColor=#9673a6;" parent="1" vertex="1">
          <mxGeometry x="1070" y="250" width="120" height="60" as="geometry" />
        </mxCell>
        <mxCell id="t0_Zm47BuXpar7EaTbNf-10" value="whether a token is on the tile the ant is currently standing on" style="rounded=1;whiteSpace=wrap;html=1;fillColor=#e1d5e7;strokeColor=#9673a6;" parent="1" vertex="1">
          <mxGeometry x="1070" y="360" width="120" height="60" as="geometry" />
        </mxCell>
        <mxCell id="t0_Zm47BuXpar7EaTbNf-15" value="move forward one tile in the direction faced" style="rounded=1;whiteSpace=wrap;html=1;fillColor=#e1d5e7;strokeColor=#9673a6;" parent="1" vertex="1">
          <mxGeometry x="660" y="260" width="120" height="60" as="geometry" />
        </mxCell>
        <mxCell id="t0_Zm47BuXpar7EaTbNf-16" value="output a message to the user" style="rounded=1;whiteSpace=wrap;html=1;fillColor=#e1d5e7;strokeColor=#9673a6;" parent="1" vertex="1">
          <mxGeometry x="490" y="450" width="120" height="60" as="geometry" />
        </mxCell>
        <mxCell id="t0_Zm47BuXpar7EaTbNf-17" value="pick up or put down a marker" style="rounded=1;whiteSpace=wrap;html=1;fillColor=#e1d5e7;strokeColor=#9673a6;" parent="1" vertex="1">
          <mxGeometry x="490" y="260" width="120" height="60" as="geometry" />
        </mxCell>
        <mxCell id="t0_Zm47BuXpar7EaTbNf-18" value="turn the ant 90 degrees anticlockwise" style="rounded=1;whiteSpace=wrap;html=1;fillColor=#e1d5e7;strokeColor=#9673a6;" parent="1" vertex="1">
          <mxGeometry x="380" y="360" width="120" height="60" as="geometry" />
        </mxCell>
        <mxCell id="t0_Zm47BuXpar7EaTbNf-31" value="when the ant is at the entrance both the tile above and below are clear" style="rounded=1;whiteSpace=wrap;html=1;strokeColor=#9673a6;fillColor=#e1d5e7;" parent="1" vertex="1">
          <mxGeometry x="620" y="770" width="120" height="60" as="geometry" />
        </mxCell>
        <mxCell id="t0_Zm47BuXpar7EaTbNf-32" value="only one path to the end of the maze" style="rounded=1;whiteSpace=wrap;html=1;strokeColor=#9673a6;fillColor=#e1d5e7;" parent="1" vertex="1">
          <mxGeometry x="767" y="890" width="120" height="60" as="geometry" />
        </mxCell>
        <mxCell id="t0_Zm47BuXpar7EaTbNf-33" value="the coins can appear in various stack sizes no greater than 3" style="rounded=1;whiteSpace=wrap;html=1;strokeColor=#9673a6;fillColor=#e1d5e7;" parent="1" vertex="1">
          <mxGeometry x="920" y="890" width="120" height="60" as="geometry" />
        </mxCell>
        <mxCell id="t0_Zm47BuXpar7EaTbNf-34" value="the coins are only contained within maze" style="rounded=1;whiteSpace=wrap;html=1;strokeColor=#9673a6;fillColor=#e1d5e7;" parent="1" vertex="1">
          <mxGeometry x="920" y="770" width="120" height="60" as="geometry" />
        </mxCell>
        <mxCell id="t0_Zm47BuXpar7EaTbNf-38" style="edgeStyle=orthogonalEdgeStyle;rounded=0;orthogonalLoop=1;jettySize=auto;html=1;" parent="1" source="t0_Zm47BuXpar7EaTbNf-36" target="t0_Zm47BuXpar7EaTbNf-31" edge="1">
          <mxGeometry relative="1" as="geometry" />
        </mxCell>
        <mxCell id="t0_Zm47BuXpar7EaTbNf-39" style="edgeStyle=orthogonalEdgeStyle;rounded=0;orthogonalLoop=1;jettySize=auto;html=1;" parent="1" source="t0_Zm47BuXpar7EaTbNf-36" target="t0_Zm47BuXpar7EaTbNf-34" edge="1">
          <mxGeometry relative="1" as="geometry" />
        </mxCell>
        <mxCell id="t0_Zm47BuXpar7EaTbNf-40" style="edgeStyle=orthogonalEdgeStyle;rounded=0;orthogonalLoop=1;jettySize=auto;html=1;entryX=0.5;entryY=0;entryDx=0;entryDy=0;" parent="1" source="t0_Zm47BuXpar7EaTbNf-36" target="t0_Zm47BuXpar7EaTbNf-32" edge="1">
          <mxGeometry relative="1" as="geometry" />
        </mxCell>
        <mxCell id="t0_Zm47BuXpar7EaTbNf-41" style="edgeStyle=orthogonalEdgeStyle;rounded=0;orthogonalLoop=1;jettySize=auto;html=1;" parent="1" source="t0_Zm47BuXpar7EaTbNf-36" target="t0_Zm47BuXpar7EaTbNf-33" edge="1">
          <mxGeometry relative="1" as="geometry">
            <Array as="points">
              <mxPoint x="827" y="860" />
              <mxPoint x="980" y="860" />
            </Array>
          </mxGeometry>
        </mxCell>
        <mxCell id="t0_Zm47BuXpar7EaTbNf-46" style="edgeStyle=orthogonalEdgeStyle;rounded=0;orthogonalLoop=1;jettySize=auto;html=1;entryX=0.5;entryY=0;entryDx=0;entryDy=0;" parent="1" source="t0_Zm47BuXpar7EaTbNf-36" target="t0_Zm47BuXpar7EaTbNf-45" edge="1">
          <mxGeometry relative="1" as="geometry">
            <mxPoint x="730" y="870" as="targetPoint" />
            <Array as="points">
              <mxPoint x="827" y="860" />
              <mxPoint x="680" y="860" />
            </Array>
          </mxGeometry>
        </mxCell>
        <mxCell id="t0_Zm47BuXpar7EaTbNf-36" value="Maze Structure" style="rounded=1;whiteSpace=wrap;html=1;strokeColor=#666666;fillColor=#f5f5f5;fontColor=#333333;" parent="1" vertex="1">
          <mxGeometry x="767" y="770" width="120" height="60" as="geometry" />
        </mxCell>
        <mxCell id="t0_Zm47BuXpar7EaTbNf-45" value="ant always starts facing right and into the maze" style="rounded=1;whiteSpace=wrap;html=1;strokeColor=#9673a6;fillColor=#e1d5e7;" parent="1" vertex="1">
          <mxGeometry x="620" y="890" width="120" height="60" as="geometry" />
        </mxCell>
      </root>
    </mxGraphModel>
  </diagram>
</mxfile>
